<svg xmlns="http://www.w3.org/2000/svg" xmlns:xlink="http://www.w3.org/1999/xlink" width="500" zoomAndPan="magnify" viewBox="0 0 375 374.999991" height="500" preserveAspectRatio="xMidYMid meet" version="1.0"><defs><g/><clipPath id="8dcaee4d95"><path d="M 0 172.769531 L 375 172.769531 L 375 202.230469 L 0 202.230469 Z M 0 172.769531 " clip-rule="nonzero"/></clipPath></defs><g fill="#000000" fill-opacity="1"><g transform="translate(81.216811, 278.783917)"><g><path d="M 8.640625 -195.46875 L 62.578125 -195.46875 C 76.535156 -195.46875 87.003906 -191.597656 93.984375 -183.859375 C 100.960938 -176.128906 104.523438 -164.679688 104.671875 -149.515625 L 105.140625 -58.03125 C 105.285156 -38.757812 101.941406 -24.269531 95.109375 -14.5625 C 88.285156 -4.851562 76.988281 0 61.21875 0 L 8.640625 0 Z M 54.84375 -34.59375 C 61.96875 -34.59375 65.53125 -38.082031 65.53125 -45.0625 L 65.53125 -145.875 C 65.53125 -150.269531 65.1875 -153.566406 64.5 -155.765625 C 63.820312 -157.960938 62.570312 -159.441406 60.75 -160.203125 C 58.9375 -160.960938 56.132812 -161.34375 52.34375 -161.34375 L 48.015625 -161.34375 L 48.015625 -34.59375 Z M 54.84375 -34.59375 "/></g></g></g><g fill="#000000" fill-opacity="1"><g transform="translate(188.854827, 278.783917)"><g><path d="M 55.0625 1.828125 C 37.3125 1.828125 24.492188 -2.570312 16.609375 -11.375 C 8.722656 -20.175781 4.78125 -34.363281 4.78125 -53.9375 L 4.78125 -73.046875 L 43.234375 -73.046875 L 43.234375 -48.703125 C 43.234375 -38.992188 46.34375 -34.140625 52.5625 -34.140625 C 56.050781 -34.140625 58.476562 -35.160156 59.84375 -37.203125 C 61.207031 -39.253906 61.890625 -42.707031 61.890625 -47.5625 C 61.890625 -53.9375 61.128906 -59.207031 59.609375 -63.375 C 58.097656 -67.550781 56.164062 -71.039062 53.8125 -73.84375 C 51.46875 -76.644531 47.257812 -81.003906 41.1875 -86.921875 L 24.34375 -103.765625 C 11.300781 -116.515625 4.78125 -130.625 4.78125 -146.09375 C 4.78125 -162.78125 8.609375 -175.484375 16.265625 -184.203125 C 23.929688 -192.929688 35.125 -197.296875 49.84375 -197.296875 C 67.4375 -197.296875 80.097656 -192.628906 87.828125 -183.296875 C 95.566406 -173.972656 99.4375 -159.375 99.4375 -139.5 L 59.625 -139.5 L 59.390625 -152.921875 C 59.390625 -155.503906 58.664062 -157.550781 57.21875 -159.0625 C 55.78125 -160.582031 53.773438 -161.34375 51.203125 -161.34375 C 48.171875 -161.34375 45.894531 -160.503906 44.375 -158.828125 C 42.851562 -157.160156 42.09375 -154.890625 42.09375 -152.015625 C 42.09375 -145.640625 45.734375 -139.039062 53.015625 -132.21875 L 75.78125 -110.375 C 81.09375 -105.207031 85.488281 -100.3125 88.96875 -95.6875 C 92.457031 -91.0625 95.265625 -85.597656 97.390625 -79.296875 C 99.515625 -73.003906 100.578125 -65.535156 100.578125 -56.890625 C 100.578125 -37.617188 97.050781 -23.015625 90 -13.078125 C 82.945312 -3.140625 71.300781 1.828125 55.0625 1.828125 Z M 55.0625 1.828125 "/></g></g></g><g clip-path="url(#8dcaee4d95)"><path fill="#ffffff" d="M 0 172.769531 L 374.976562 172.769531 L 374.976562 202.230469 L 0 202.230469 Z M 0 172.769531 " fill-opacity="1" fill-rule="nonzero"/></g><g fill="#000000" fill-opacity="1"><g transform="translate(119.422255, 195.345866)"><g><path d="M 0.8125 -18.21875 L 5.828125 -18.21875 C 7.128906 -18.21875 8.101562 -17.851562 8.75 -17.125 C 9.40625 -16.40625 9.738281 -15.34375 9.75 -13.9375 L 9.796875 -5.40625 C 9.804688 -3.613281 9.492188 -2.265625 8.859375 -1.359375 C 8.222656 -0.453125 7.171875 0 5.703125 0 L 0.8125 0 Z M 5.109375 -3.21875 C 5.773438 -3.21875 6.109375 -3.546875 6.109375 -4.203125 L 6.109375 -13.59375 C 6.109375 -14 6.078125 -14.304688 6.015625 -14.515625 C 5.953125 -14.722656 5.832031 -14.859375 5.65625 -14.921875 C 5.488281 -14.992188 5.226562 -15.03125 4.875 -15.03125 L 4.46875 -15.03125 L 4.46875 -3.21875 Z M 5.109375 -3.21875 "/></g></g></g><g fill="#000000" fill-opacity="1"><g transform="translate(133.055542, 195.345866)"><g><path d="M 5.15625 0.171875 C 3.6875 0.171875 2.566406 -0.273438 1.796875 -1.171875 C 1.035156 -2.066406 0.65625 -3.332031 0.65625 -4.96875 L 0.65625 -13.640625 C 0.65625 -15.203125 1.035156 -16.382812 1.796875 -17.1875 C 2.566406 -17.988281 3.6875 -18.390625 5.15625 -18.390625 C 6.625 -18.390625 7.738281 -17.988281 8.5 -17.1875 C 9.257812 -16.382812 9.640625 -15.203125 9.640625 -13.640625 L 9.640625 -4.96875 C 9.640625 -3.320312 9.257812 -2.050781 8.5 -1.15625 C 7.738281 -0.269531 6.625 0.171875 5.15625 0.171875 Z M 5.15625 -3.1875 C 5.476562 -3.1875 5.695312 -3.328125 5.8125 -3.609375 C 5.925781 -3.890625 5.984375 -4.285156 5.984375 -4.796875 L 5.984375 -13.703125 C 5.984375 -14.097656 5.925781 -14.414062 5.8125 -14.65625 C 5.707031 -14.90625 5.492188 -15.03125 5.171875 -15.03125 C 4.566406 -15.03125 4.265625 -14.570312 4.265625 -13.65625 L 4.265625 -4.765625 C 4.265625 -4.242188 4.328125 -3.847656 4.453125 -3.578125 C 4.578125 -3.316406 4.8125 -3.1875 5.15625 -3.1875 Z M 5.15625 -3.1875 "/></g></g></g><g fill="#000000" fill-opacity="1"><g transform="translate(146.540433, 195.345866)"><g><path d="M 0.8125 0 L 0.8125 -18.21875 L 4.5625 -18.21875 L 6.234375 -9.5 L 6.234375 -18.21875 L 9.75 -18.21875 L 9.75 0 L 6.1875 0 L 4.375 -9.125 L 4.375 0 Z M 0.8125 0 "/></g></g></g><g fill="#000000" fill-opacity="1"><g transform="translate(160.279714, 195.345866)"><g><path d="M 2.375 0 L 2.375 -14.71875 L 0.21875 -14.71875 L 0.21875 -18.21875 L 8.1875 -18.21875 L 8.1875 -14.71875 L 6.015625 -14.71875 L 6.015625 0 Z M 2.375 0 "/></g></g></g><g fill="#000000" fill-opacity="1"><g transform="translate(171.856671, 195.345866)"><g><path d="M 0.3125 0 L 2.078125 -18.21875 L 8.25 -18.21875 L 9.984375 0 L 6.53125 0 L 6.28125 -2.953125 L 4.078125 -2.953125 L 3.859375 0 Z M 4.34375 -5.859375 L 6 -5.859375 L 5.1875 -15.125 L 5.03125 -15.125 Z M 4.34375 -5.859375 "/></g></g></g><g fill="#000000" fill-opacity="1"><g transform="translate(185.320369, 195.345866)"><g/></g></g><g fill="#000000" fill-opacity="1"><g transform="translate(193.463046, 195.345866)"><g><path d="M 5.125 0.171875 C 3.476562 0.171875 2.285156 -0.238281 1.546875 -1.0625 C 0.804688 -1.882812 0.4375 -3.207031 0.4375 -5.03125 L 0.4375 -6.8125 L 4.03125 -6.8125 L 4.03125 -4.53125 C 4.03125 -3.632812 4.316406 -3.1875 4.890625 -3.1875 C 5.222656 -3.1875 5.453125 -3.28125 5.578125 -3.46875 C 5.703125 -3.65625 5.765625 -3.976562 5.765625 -4.4375 C 5.765625 -5.03125 5.691406 -5.519531 5.546875 -5.90625 C 5.410156 -6.289062 5.234375 -6.613281 5.015625 -6.875 C 4.796875 -7.132812 4.40625 -7.539062 3.84375 -8.09375 L 2.265625 -9.671875 C 1.046875 -10.859375 0.4375 -12.171875 0.4375 -13.609375 C 0.4375 -15.160156 0.796875 -16.34375 1.515625 -17.15625 C 2.234375 -17.976562 3.273438 -18.390625 4.640625 -18.390625 C 6.285156 -18.390625 7.46875 -17.953125 8.1875 -17.078125 C 8.90625 -16.210938 9.265625 -14.851562 9.265625 -13 L 5.5625 -13 L 5.53125 -14.25 C 5.53125 -14.488281 5.460938 -14.675781 5.328125 -14.8125 C 5.191406 -14.957031 5.003906 -15.03125 4.765625 -15.03125 C 4.484375 -15.03125 4.269531 -14.953125 4.125 -14.796875 C 3.988281 -14.640625 3.921875 -14.425781 3.921875 -14.15625 C 3.921875 -13.5625 4.257812 -12.945312 4.9375 -12.3125 L 7.0625 -10.28125 C 7.550781 -9.800781 7.957031 -9.34375 8.28125 -8.90625 C 8.613281 -8.476562 8.878906 -7.972656 9.078125 -7.390625 C 9.273438 -6.804688 9.375 -6.109375 9.375 -5.296875 C 9.375 -3.503906 9.046875 -2.144531 8.390625 -1.21875 C 7.734375 -0.289062 6.644531 0.171875 5.125 0.171875 Z M 5.125 0.171875 "/></g></g></g><g fill="#000000" fill-opacity="1"><g transform="translate(206.417952, 195.345866)"><g><path d="M 0.8125 0 L 0.8125 -18.21875 L 6.359375 -18.21875 L 7.890625 -7.109375 L 9.421875 -18.21875 L 15.015625 -18.21875 L 15.015625 0 L 11.6875 0 L 11.6875 -13.125 L 9.578125 0 L 6.3125 0 L 4.09375 -13.125 L 4.09375 0 Z M 0.8125 0 "/></g></g></g><g fill="#000000" fill-opacity="1"><g transform="translate(225.414656, 195.345866)"><g><path d="M 0.640625 0 L 0.640625 -18.21875 L 4.15625 -18.21875 L 4.15625 0 Z M 0.640625 0 "/></g></g></g><g fill="#000000" fill-opacity="1"><g transform="translate(233.408937, 195.345866)"><g><path d="M 2.375 0 L 2.375 -14.71875 L 0.21875 -14.71875 L 0.21875 -18.21875 L 8.1875 -18.21875 L 8.1875 -14.71875 L 6.015625 -14.71875 L 6.015625 0 Z M 2.375 0 "/></g></g></g><g fill="#000000" fill-opacity="1"><g transform="translate(244.985894, 195.345866)"><g><path d="M 0.8125 0 L 0.8125 -18.21875 L 4.4375 -18.21875 L 4.4375 -11.703125 L 6.15625 -11.703125 L 6.15625 -18.21875 L 9.78125 -18.21875 L 9.78125 0 L 6.15625 0 L 6.15625 -8.265625 L 4.4375 -8.265625 L 4.4375 0 Z M 0.8125 0 "/></g></g></g></svg>